<svg width="200" height="60" fill="none" xmlns="http://www.w3.org/2000/svg"><rect x=".7" y="3.7" width="198.6" height="54.6" rx="27.3" stroke="#458FF6" stroke-width="1.4"/><path d="M52.386 24.184h2.322v10.908h5.994V37h-8.316V24.184Zm17.813 8.388h-6.264c.048.972.288 1.692.72 2.16.445.456 1.099.684 1.963.684.996 0 1.92-.324 2.772-.972l.647 1.548c-.431.348-.966.63-1.602.846a6.103 6.103 0 0 1-1.907.306c-1.489 0-2.659-.42-3.51-1.26-.852-.84-1.279-1.992-1.279-3.456 0-.924.187-1.746.559-2.466a4.06 4.06 0 0 1 1.566-1.674c.672-.408 1.434-.612 2.286-.612 1.247 0 2.231.408 2.951 1.224.733.804 1.099 1.914 1.099 3.33v.342Zm-3.995-3.276c-.6 0-1.092.18-1.476.54-.372.348-.612.858-.72 1.53h4.23c-.073-.684-.282-1.2-.63-1.548-.337-.348-.805-.522-1.404-.522Zm14.595-1.386V37h-2.214v-1.458c-.276.504-.672.9-1.188 1.188-.516.276-1.104.414-1.764.414-.792 0-1.494-.192-2.106-.576-.612-.384-1.086-.93-1.422-1.638-.336-.708-.504-1.53-.504-2.466 0-.936.168-1.764.504-2.484.348-.732.828-1.296 1.44-1.692.612-.408 1.308-.612 2.088-.612.66 0 1.248.144 1.764.432.516.276.912.666 1.188 1.17V27.91h2.214Zm-4.554 7.47c.744 0 1.32-.258 1.728-.774.408-.516.612-1.242.612-2.178 0-.96-.204-1.698-.612-2.214-.408-.516-.99-.774-1.746-.774-.744 0-1.326.27-1.746.81-.408.528-.612 1.266-.612 2.214 0 .936.204 1.656.612 2.16.42.504 1.008.756 1.764.756Zm11.9-7.686c.348 0 .648.048.9.144l-.018 2.052a3.128 3.128 0 0 0-1.188-.234c-.768 0-1.356.222-1.764.666-.396.444-.594 1.032-.594 1.764V37H83.25v-6.516c0-.96-.048-1.818-.144-2.574h2.106l.18 1.602c.228-.588.588-1.038 1.08-1.35a3.06 3.06 0 0 1 1.674-.468Zm7.355-.018c2.172 0 3.258 1.248 3.258 3.744V37h-2.25v-5.472c0-.72-.138-1.242-.414-1.566-.276-.336-.702-.504-1.278-.504-.684 0-1.236.222-1.656.666-.42.432-.63 1.008-.63 1.728V37h-2.232v-6.516c0-.96-.048-1.818-.144-2.574h2.106l.162 1.494a3.308 3.308 0 0 1 1.26-1.278 3.68 3.68 0 0 1 1.818-.45Zm21.311 0c1.032 0 1.8.312 2.304.936.504.612.756 1.548.756 2.808V37h-2.25v-5.508c0-.72-.12-1.236-.36-1.548-.228-.324-.612-.486-1.152-.486-.624 0-1.116.222-1.476.666-.348.432-.522 1.032-.522 1.8V37h-2.25v-5.508c0-.708-.126-1.224-.378-1.548-.24-.324-.624-.486-1.152-.486-.624 0-1.116.222-1.476.666-.36.432-.54 1.032-.54 1.8V37h-2.232v-6.516c0-.96-.048-1.818-.144-2.574h2.106l.162 1.44a2.85 2.85 0 0 1 1.134-1.242c.504-.288 1.08-.432 1.728-.432 1.392 0 2.298.576 2.718 1.728.288-.54.696-.96 1.224-1.26a3.533 3.533 0 0 1 1.8-.468Zm9.584 9.468c-.924 0-1.74-.192-2.448-.576a4.019 4.019 0 0 1-1.62-1.638c-.372-.72-.558-1.56-.558-2.52s.186-1.794.558-2.502a3.992 3.992 0 0 1 1.62-1.656c.708-.384 1.524-.576 2.448-.576.912 0 1.716.192 2.412.576a3.88 3.88 0 0 1 1.602 1.656c.384.708.576 1.542.576 2.502 0 .96-.192 1.8-.576 2.52a3.905 3.905 0 0 1-1.602 1.638c-.696.384-1.5.576-2.412.576Zm-.018-1.764c.768 0 1.35-.246 1.746-.738.408-.504.612-1.248.612-2.232 0-.972-.204-1.71-.612-2.214-.408-.516-.984-.774-1.728-.774-.756 0-1.338.258-1.746.774-.408.504-.612 1.242-.612 2.214 0 .984.198 1.728.594 2.232.408.492.99.738 1.746.738Zm11.444-7.686c.348 0 .648.048.9.144l-.018 2.052a3.128 3.128 0 0 0-1.188-.234c-.768 0-1.356.222-1.764.666-.396.444-.594 1.032-.594 1.764V37h-2.232v-6.516c0-.96-.048-1.818-.144-2.574h2.106l.18 1.602c.228-.588.588-1.038 1.08-1.35a3.06 3.06 0 0 1 1.674-.468Zm9.933 4.878h-6.264c.048.972.288 1.692.72 2.16.444.456 1.098.684 1.962.684.996 0 1.92-.324 2.772-.972l.648 1.548c-.432.348-.966.63-1.602.846a6.103 6.103 0 0 1-1.908.306c-1.488 0-2.658-.42-3.51-1.26-.852-.84-1.278-1.992-1.278-3.456 0-.924.186-1.746.558-2.466a4.06 4.06 0 0 1 1.566-1.674c.672-.408 1.434-.612 2.286-.612 1.248 0 2.232.408 2.952 1.224.732.804 1.098 1.914 1.098 3.33v.342Zm-3.996-3.276c-.6 0-1.092.18-1.476.54-.372.348-.612.858-.72 1.53h4.23c-.072-.684-.282-1.2-.63-1.548-.336-.348-.804-.522-1.404-.522Z" fill="#458FF6"/></svg>